<svg width="508" height="96" viewBox="0 0 508 96" fill="none" xmlns="http://www.w3.org/2000/svg">
<path d="M116.182 29.1733L133.315 75.12H134.62L151.673 29.1733H159.707L139.297 83.32H128.399L107.909 29.1733H116.195H116.182Z" fill="white"/>
<path d="M208.574 77.1733V83.3333H166.195V29.1733H208.254V35.3333H174.148V52.4H203.245V58.56H174.148V77.1867H208.574V77.1733Z" fill="white"/>
<path d="M223.002 29.1733V77.1733H251.619V83.3333H215.062V29.1733H223.016H223.002Z" fill="white"/>
<path d="M265.141 80.5333C260.825 78.1333 257.614 74.8266 255.509 70.64C253.404 66.4533 252.352 61.6266 252.352 56.16C252.352 50.6933 253.404 46.1066 255.509 41.92C257.614 37.7333 260.838 34.4266 265.181 31.9866C269.524 29.5466 274.893 28.3333 281.288 28.3333C287.683 28.3333 293.132 29.5466 297.475 31.9866C301.818 34.4266 305.055 37.7466 307.187 41.96C309.319 46.1733 310.385 50.9066 310.385 56.1466C310.385 61.3866 309.319 66.3733 307.187 70.5866C305.055 74.8 301.818 78.1066 297.475 80.52C293.132 82.9333 287.736 84.1333 281.288 84.1333C274.84 84.1333 269.458 82.9333 265.141 80.52V80.5333ZM265.914 72.1733C269.378 76 274.507 77.92 281.288 77.92C288.069 77.92 293.265 76 296.742 72.1733C300.206 68.3466 301.951 63.0133 301.951 56.1733C301.951 49.3333 300.219 44.1733 296.742 40.3333C293.265 36.5066 288.123 34.5866 281.288 34.5866C274.454 34.5866 269.458 36.5066 265.954 40.3333C262.45 44.16 260.705 49.44 260.705 56.1733C260.705 62.9066 262.437 68.3466 265.914 72.1733Z" fill="white"/>
<path d="M364.581 78.6133C360.038 82.3066 353.616 84.1466 345.316 84.1466C339.028 84.1466 333.752 82.9467 329.489 80.5333C325.226 78.1333 322.055 74.8133 319.977 70.6C317.899 66.3867 316.859 61.52 316.859 56C316.859 50.48 317.912 45.96 320.017 41.8133C322.122 37.6667 325.306 34.3733 329.569 31.9733C333.832 29.5733 339.108 28.36 345.396 28.36C353.376 28.36 359.611 30.08 364.088 33.5333C368.564 36.9733 371.362 41.9066 372.454 48.3066H364.421C363.488 43.6533 361.45 40.2133 358.319 37.9733C355.175 35.7333 350.898 34.6133 345.489 34.6133C338.882 34.6133 333.846 36.4266 330.408 40.0666C326.971 43.7066 325.239 49.0267 325.239 56.0267C325.239 63.0266 326.931 68.7066 330.315 72.4C333.699 76.0933 338.708 77.9333 345.316 77.9333C350.938 77.9333 355.388 76.6666 358.639 74.12C361.89 71.5733 363.901 67.8133 364.661 62.84H372.774C371.841 69.68 369.11 74.9466 364.581 78.64V78.6133Z" fill="white"/>
<path d="M387.362 29.1733V83.32H379.249V29.1733H387.362Z" fill="white"/>
<path d="M393.837 35.3333V29.1733H442.531V35.3333H422.281V83.3333H414.327V35.3333H393.837Z" fill="white"/>
<path d="M474.678 56.8267L491.571 29.1733H500.43L478.621 63.8V83.3333H470.748V63.8L449.019 29.1733H457.958L474.678 56.8267Z" fill="white"/>
<path d="M25.1927 73.8533L3.06396 96H15.8936C18.9311 96 21.8487 94.7733 23.9803 92.6L39.8874 76.3067L56.2875 92.68C58.4191 94.8 61.2967 96 64.3076 96H76.8441L54.7154 73.8533C46.562 65.6933 33.3328 65.6933 25.1794 73.8533H25.1927Z" fill="url(#paint0_radial_88_1771)"/>
<path d="M25.0861 38.0533L3.06396 16.0133H15.787C18.9045 16.0133 21.8754 17.2667 24.0603 19.4933L38.7817 34.56C39.3945 35.1867 40.407 35.2 41.0199 34.5733L72.3411 3.28C74.4461 1.17333 77.2971 0 80.268 0H92.5381C92.658 0 92.7246 0.146667 92.6313 0.226667L54.8353 38.0533C46.6286 46.2667 33.3061 46.2667 25.0994 38.0533H25.0861Z" fill="url(#paint1_radial_88_1771)"/>
<path d="M57.7929 70.7867L79.9216 92.9333V80.16C79.9216 77.0667 78.6826 74.12 76.4711 71.96L61.3767 57.2C60.7505 56.5867 60.7372 55.5733 61.3634 54.96L92.9111 23.3467C94.8296 21.4133 95.9087 18.8133 95.9087 16.08V3.06665L57.7796 41.2267C49.6262 49.3867 49.6262 62.6267 57.7796 70.7867H57.7929Z" fill="url(#paint2_radial_88_1771)"/>
<path d="M22.1287 70.7867L0 92.9333V80.1067C0 77.0533 1.22567 74.12 3.41057 71.9867L19.6774 56.08L3.33063 39.68C1.19903 37.5333 0 34.64 0 31.6133V19.08L22.1154 41.2133C30.2688 49.3733 30.2688 62.6133 22.1154 70.7867H22.1287Z" fill="url(#paint3_radial_88_1771)"/>
<path d="M52.9572 69.0134C45.7764 61.8267 34.1325 61.8267 26.9517 69.0134C34.1325 61.8267 34.1325 50.1734 26.9517 42.9867C34.1325 50.1734 45.7764 50.1734 52.9572 42.9867C45.7764 50.1734 45.7764 61.8267 52.9572 69.0134Z" fill="url(#paint4_radial_88_1771)"/>
<defs>
<radialGradient id="paint0_radial_88_1771" cx="0" cy="0" r="1" gradientUnits="userSpaceOnUse" gradientTransform="translate(39.9541 81.8667) scale(27.9373 27.96)">
<stop stop-color="#01FF6B"/>
<stop offset="1" stop-color="#009E43"/>
</radialGradient>
<radialGradient id="paint1_radial_88_1771" cx="0" cy="0" r="1" gradientUnits="userSpaceOnUse" gradientTransform="translate(47.8676 22.1067) scale(35.318 35.3467)">
<stop stop-color="#01FF6B"/>
<stop offset="1" stop-color="#009E43"/>
</radialGradient>
<radialGradient id="paint2_radial_88_1771" cx="0" cy="0" r="1" gradientUnits="userSpaceOnUse" gradientTransform="translate(73.7933 48) scale(35.398 35.4267)">
<stop stop-color="#01FF6B"/>
<stop offset="1" stop-color="#009E43"/>
</radialGradient>
<radialGradient id="paint3_radial_88_1771" cx="0" cy="0" r="1" gradientUnits="userSpaceOnUse" gradientTransform="translate(14.1219 56.0133) scale(27.9373 27.96)">
<stop stop-color="#01FF6B"/>
<stop offset="1" stop-color="#009E43"/>
</radialGradient>
<radialGradient id="paint4_radial_88_1771" cx="0" cy="0" r="1" gradientUnits="userSpaceOnUse" gradientTransform="translate(39.9545 56.0134) scale(13.0028 13.0133)">
<stop stop-color="#01FF6B"/>
<stop offset="1" stop-color="#009E43"/>
</radialGradient>
</defs>
</svg>
